<svg xmlns="http://www.w3.org/2000/svg" viewBox="0 0 1200 860" width="1200" height="860">
  <style>text { font-family: "Helvetica Neue", Helvetica, Arial, sans-serif; }</style>
  <defs>
    <marker id="ab" markerWidth="10" markerHeight="7" refX="9" refY="3.5" orient="auto"><polygon points="0 0, 10 3.5, 0 7" fill="#2563eb"/></marker>
    <marker id="ap" markerWidth="10" markerHeight="7" refX="9" refY="3.5" orient="auto"><polygon points="0 0, 10 3.5, 0 7" fill="#7c3aed"/></marker>
    <marker id="agr" markerWidth="10" markerHeight="7" refX="9" refY="3.5" orient="auto"><polygon points="0 0, 10 3.5, 0 7" fill="#9ca3af"/></marker>
  </defs>
  <rect width="1200" height="860" fill="#ffffff"/>
  <text x="24" y="38" font-size="18" fill="#111827" text-anchor="start" font-weight="700" >AWS CDK (Python) · ¿Qué es y cuál es su ciclo de vida?</text>
  <text x="1176" y="38" font-size="12" fill="#6b7280" text-anchor="end" font-weight="400" >ITESO · Diseño de Sistemas Escalables</text>
  <rect x="24" y="56" width="1152" height="140" rx="10" ry="10" fill="#f9fafb" stroke="#9ca3af" stroke-width="1.2" />
  <text x="44" y="78" font-size="14" fill="#111827" text-anchor="start" font-weight="700" >¿Qué es AWS CDK?</text>
  <rect x="40" y="88" width="272" height="100" rx="6" ry="6" fill="#eff6ff" stroke="#93c5fd" stroke-width="1.5" />
  <text x="50" y="106" font-size="11" fill="#111827" text-anchor="start" font-weight="700" >Infraestructura como código en un lenguaje real</text>
  <text x="50" y="122" font-size="10.2" fill="#374151" text-anchor="start" font-weight="400" >Python, TypeScript, Java…: defines VPC, ECS y</text>
  <text x="50" y="134" font-size="10.2" fill="#374151" text-anchor="start" font-weight="400" >ALB con clases y objetos, no con YAML a mano.</text>
  <rect x="324" y="88" width="272" height="100" rx="6" ry="6" fill="#faf5ff" stroke="#c4b5fd" stroke-width="1.5" />
  <text x="334" y="106" font-size="11" fill="#111827" text-anchor="start" font-weight="700" >Constructs (3 niveles)</text>
  <text x="334" y="122" font-size="10.2" fill="#374151" text-anchor="start" font-weight="400" >L1 = CloudFormation crudo (CfnInstance).</text>
  <text x="334" y="134" font-size="10.2" fill="#374151" text-anchor="start" font-weight="400" >L2 = abstracciones con defaults sanos</text>
  <text x="334" y="146" font-size="10.2" fill="#374151" text-anchor="start" font-weight="400" >(ec2.Vpc, ecs.Cluster).</text>
  <text x="334" y="158" font-size="10.2" fill="#374151" text-anchor="start" font-weight="400" >L3 / patterns = arquitecturas completas</text>
  <text x="334" y="170" font-size="10.2" fill="#374151" text-anchor="start" font-weight="400" >(ecs_patterns.</text>
  <text x="334" y="182" font-size="10.2" fill="#374151" text-anchor="start" font-weight="400" >ApplicationLoadBalancedFargateService).</text>
  <rect x="608" y="88" width="272" height="100" rx="6" ry="6" fill="#ffffff" stroke="#d1d5db" stroke-width="1.5" />
  <text x="618" y="106" font-size="11" fill="#111827" text-anchor="start" font-weight="700" >App → Stacks → Constructs</text>
  <text x="618" y="122" font-size="10.2" fill="#374151" text-anchor="start" font-weight="400" >Una app puede tener varios stacks.</text>
  <text x="618" y="134" font-size="10.2" fill="#374151" text-anchor="start" font-weight="400" >En el lab: base, frontend, nodejs, crystal.</text>
  <rect x="892" y="88" width="272" height="100" rx="6" ry="6" fill="#fff7ed" stroke="#fdba74" stroke-width="1.5" />
  <text x="902" y="106" font-size="11" fill="#111827" text-anchor="start" font-weight="700" >CDK no despliega por sí mismo</text>
  <text x="902" y="122" font-size="10.2" fill="#374151" text-anchor="start" font-weight="400" >Sintetiza CloudFormation y CloudFormation</text>
  <text x="902" y="134" font-size="10.2" fill="#374151" text-anchor="start" font-weight="400" >crea/actualiza los recursos.</text>
  <text x="902" y="146" font-size="10.2" fill="#374151" text-anchor="start" font-weight="400" >El código es la fuente de verdad.</text>
  <rect x="24" y="208" width="1152" height="340" rx="10" ry="10" fill="#ffffff" stroke="#9ca3af" stroke-width="1.2" />
  <text x="44" y="232" font-size="14" fill="#111827" text-anchor="start" font-weight="700" >Ciclo de vida</text>
  <path d="M 186,332 L 208,332" fill="none" stroke="#2563eb" stroke-width="2" marker-end="url(#ab)"/>
  <path d="M 348,332 L 370,332" fill="none" stroke="#2563eb" stroke-width="2" marker-end="url(#ab)"/>
  <path d="M 510,332 L 532,332" fill="none" stroke="#2563eb" stroke-width="2" marker-end="url(#ab)"/>
  <path d="M 672,332 L 694,332" fill="none" stroke="#2563eb" stroke-width="2" marker-end="url(#ab)"/>
  <path d="M 834,332 L 856,332" fill="none" stroke="#2563eb" stroke-width="2" marker-end="url(#ab)"/>
  <path d="M 996,332 L 1018,332" fill="none" stroke="#2563eb" stroke-width="2" marker-end="url(#ab)"/>
  <path d="M 926,262 L 926,250 Q 926,244 920,244 L 446,244 Q 440,244 440,250 L 440,262" fill="none" stroke="#7c3aed" stroke-width="1.8" stroke-dasharray="5,3" marker-end="url(#ap)"/>
  <rect x="567" y="235" width="233" height="17" rx="3" fill="#ffffff" opacity="0.95"/>
  <text x="683" y="248" font-size="11" fill="#7c3aed" text-anchor="middle" font-weight="600" >editar app.py → synth → diff → deploy</text>
  <path d="M 440,452 L 440,490" fill="none" stroke="#9ca3af" stroke-width="1.5" stroke-dasharray="4,2" marker-end="url(#agr)"/>
  <path d="M 740,452 L 740,490" fill="none" stroke="#9ca3af" stroke-width="1.5" stroke-dasharray="4,2" marker-end="url(#agr)"/>
  <path d="M 790,452 L 790,470 L 880,470 L 880,490" fill="none" stroke="#9ca3af" stroke-width="1.5" stroke-dasharray="4,2" marker-end="url(#agr)"/>
  <rect x="46" y="262" width="140" height="190" rx="8" ry="8" fill="#ffffff" stroke="#d1d5db" stroke-width="1.5" />
  <text x="116" y="280" font-size="11" fill="#6b7280" text-anchor="middle" font-weight="700" >1</text>
  <text x="116" y="296" font-size="10.5" fill="#1e40af" text-anchor="middle" font-weight="600" font-family="'SF Mono', Menlo, Consolas, monospace">cdk init app</text>
  <text x="116" y="310" font-size="10.5" fill="#1e40af" text-anchor="middle" font-weight="600" font-family="'SF Mono', Menlo, Consolas, monospace">--language python</text>
  <line x1="58" y1="326" x2="174" y2="326" stroke="#d1d5db" stroke-width="1"/>
  <text x="116" y="342.0" font-size="10" fill="#374151" text-anchor="middle" font-weight="400" >Estructura del</text>
  <text x="116" y="354.5" font-size="10" fill="#374151" text-anchor="middle" font-weight="400" >proyecto: app.py,</text>
  <text x="116" y="367.0" font-size="10" fill="#374151" text-anchor="middle" font-weight="400" >cdk.json,</text>
  <text x="116" y="379.5" font-size="10" fill="#374151" text-anchor="middle" font-weight="400" >requirements.txt, venv</text>
  <rect x="93" y="428" width="47" height="16" rx="8" ry="8" fill="#e5e7eb" stroke="#e5e7eb" stroke-width="1" />
  <text x="116" y="439.5" font-size="9.5" fill="#374151" text-anchor="middle" font-weight="600" >una vez</text>
  <rect x="208" y="262" width="140" height="190" rx="8" ry="8" fill="#ffffff" stroke="#d1d5db" stroke-width="1.5" />
  <text x="278" y="280" font-size="11" fill="#6b7280" text-anchor="middle" font-weight="700" >2</text>
  <text x="278" y="296" font-size="10.5" fill="#1e40af" text-anchor="middle" font-weight="600" font-family="'SF Mono', Menlo, Consolas, monospace">cdk bootstrap</text>
  <line x1="220" y1="326" x2="336" y2="326" stroke="#d1d5db" stroke-width="1"/>
  <text x="278" y="342.0" font-size="10" fill="#374151" text-anchor="middle" font-weight="400" >Crea el stack</text>
  <text x="278" y="354.5" font-size="10" fill="#374151" text-anchor="middle" font-weight="400" >CDKToolkit en la</text>
  <text x="278" y="367.0" font-size="10" fill="#374151" text-anchor="middle" font-weight="400" >cuenta/región: bucket</text>
  <text x="278" y="379.5" font-size="10" fill="#374151" text-anchor="middle" font-weight="400" >S3 + roles IAM que CDK</text>
  <text x="278" y="392.0" font-size="10" fill="#374151" text-anchor="middle" font-weight="400" >usa para subir assets</text>
  <text x="278" y="404.5" font-size="10" fill="#374151" text-anchor="middle" font-weight="400" >y ejecutar</text>
  <text x="278" y="417.0" font-size="10" fill="#374151" text-anchor="middle" font-weight="400" >CloudFormation</text>
  <rect x="215" y="428" width="127" height="16" rx="8" ry="8" fill="#e5e7eb" stroke="#e5e7eb" stroke-width="1" />
  <text x="278" y="439.5" font-size="9.5" fill="#374151" text-anchor="middle" font-weight="600" >1 vez por cuenta/región</text>
  <rect x="370" y="262" width="140" height="190" rx="8" ry="8" fill="#faf5ff" stroke="#c4b5fd" stroke-width="1.5" />
  <text x="440" y="280" font-size="11" fill="#6b7280" text-anchor="middle" font-weight="700" >3</text>
  <text x="440" y="296" font-size="10.5" fill="#1e40af" text-anchor="middle" font-weight="600" font-family="'SF Mono', Menlo, Consolas, monospace">cdk synth</text>
  <line x1="382" y1="326" x2="498" y2="326" stroke="#c4b5fd" stroke-width="1"/>
  <text x="440" y="342.0" font-size="10" fill="#374151" text-anchor="middle" font-weight="400" >Ejecuta tu app.py →</text>
  <text x="440" y="354.5" font-size="10" fill="#374151" text-anchor="middle" font-weight="400" >genera cdk.out/ con la</text>
  <text x="440" y="367.0" font-size="10" fill="#374151" text-anchor="middle" font-weight="400" >plantilla</text>
  <text x="440" y="379.5" font-size="10" fill="#374151" text-anchor="middle" font-weight="400" >CloudFormation (JSON)</text>
  <text x="440" y="392.0" font-size="10" fill="#374151" text-anchor="middle" font-weight="400" >y assets</text>
  <rect x="407" y="428" width="67" height="16" rx="8" ry="8" fill="#e5e7eb" stroke="#e5e7eb" stroke-width="1" />
  <text x="440" y="439.5" font-size="9.5" fill="#374151" text-anchor="middle" font-weight="600" >cada cambio</text>
  <rect x="532" y="262" width="140" height="190" rx="8" ry="8" fill="#eff6ff" stroke="#93c5fd" stroke-width="1.5" />
  <text x="602" y="280" font-size="11" fill="#6b7280" text-anchor="middle" font-weight="700" >4</text>
  <text x="602" y="296" font-size="10.5" fill="#1e40af" text-anchor="middle" font-weight="600" font-family="'SF Mono', Menlo, Consolas, monospace">cdk diff</text>
  <line x1="544" y1="326" x2="660" y2="326" stroke="#93c5fd" stroke-width="1"/>
  <text x="602" y="342.0" font-size="10" fill="#374151" text-anchor="middle" font-weight="400" >Compara cdk.out vs. el</text>
  <text x="602" y="354.5" font-size="10" fill="#374151" text-anchor="middle" font-weight="400" >stack desplegado: qué</text>
  <text x="602" y="367.0" font-size="10" fill="#374151" text-anchor="middle" font-weight="400" >recursos se crean,</text>
  <text x="602" y="379.5" font-size="10" fill="#374151" text-anchor="middle" font-weight="400" >cambian o borran (p.</text>
  <text x="602" y="392.0" font-size="10" fill="#374151" text-anchor="middle" font-weight="400" >ej. DesiredCount 3 →</text>
  <text x="602" y="404.5" font-size="10" fill="#374151" text-anchor="middle" font-weight="400" >5)</text>
  <rect x="559" y="428" width="87" height="16" rx="8" ry="8" fill="#e5e7eb" stroke="#e5e7eb" stroke-width="1" />
  <text x="602" y="439.5" font-size="9.5" fill="#374151" text-anchor="middle" font-weight="600" >antes de deploy</text>
  <rect x="694" y="262" width="140" height="190" rx="8" ry="8" fill="#eff6ff" stroke="#93c5fd" stroke-width="1.5" />
  <text x="764" y="280" font-size="11" fill="#6b7280" text-anchor="middle" font-weight="700" >5</text>
  <text x="764" y="296" font-size="10.5" fill="#1e40af" text-anchor="middle" font-weight="600" font-family="'SF Mono', Menlo, Consolas, monospace">cdk deploy</text>
  <line x1="706" y1="326" x2="822" y2="326" stroke="#93c5fd" stroke-width="1"/>
  <text x="764" y="342.0" font-size="10" fill="#374151" text-anchor="middle" font-weight="400" >Sube assets al bucket</text>
  <text x="764" y="354.5" font-size="10" fill="#374151" text-anchor="middle" font-weight="400" >de bootstrap y llama</text>
  <text x="764" y="367.0" font-size="10" fill="#374151" text-anchor="middle" font-weight="400" >CloudFormation</text>
  <text x="764" y="379.5" font-size="10" fill="#374151" text-anchor="middle" font-weight="400" >(CreateStack /</text>
  <text x="764" y="392.0" font-size="10" fill="#374151" text-anchor="middle" font-weight="400" >UpdateStack); espera y</text>
  <text x="764" y="404.5" font-size="10" fill="#374151" text-anchor="middle" font-weight="400" >muestra eventos y</text>
  <text x="764" y="417.0" font-size="10" fill="#374151" text-anchor="middle" font-weight="400" >Outputs</text>
  <rect x="743" y="428" width="42" height="16" rx="8" ry="8" fill="#e5e7eb" stroke="#e5e7eb" stroke-width="1" />
  <text x="764" y="439.5" font-size="9.5" fill="#374151" text-anchor="middle" font-weight="600" >aplica</text>
  <rect x="856" y="262" width="140" height="190" rx="8" ry="8" fill="#f0fdf4" stroke="#86efac" stroke-width="1.5" />
  <text x="926" y="280" font-size="11" fill="#6b7280" text-anchor="middle" font-weight="700" >6</text>
  <text x="926" y="296" font-size="10.5" fill="#111827" text-anchor="middle" font-weight="600" >Observar / iterar</text>
  <line x1="868" y1="326" x2="984" y2="326" stroke="#86efac" stroke-width="1"/>
  <text x="926" y="342.0" font-size="10" fill="#374151" text-anchor="middle" font-weight="400" >ECS, ALB, CloudWatch…</text>
  <text x="926" y="354.5" font-size="10" fill="#374151" text-anchor="middle" font-weight="400" >verificar; editar</text>
  <text x="926" y="367.0" font-size="10" fill="#374151" text-anchor="middle" font-weight="400" >código y volver a</text>
  <text x="926" y="379.5" font-size="10" fill="#374151" text-anchor="middle" font-weight="400" >synth/diff/deploy</text>
  <rect x="910" y="428" width="32" height="16" rx="8" ry="8" fill="#e5e7eb" stroke="#e5e7eb" stroke-width="1" />
  <text x="926" y="439.5" font-size="9.5" fill="#374151" text-anchor="middle" font-weight="600" >loop</text>
  <rect x="1018" y="262" width="140" height="190" rx="8" ry="8" fill="#fff7ed" stroke="#fdba74" stroke-width="1.5" />
  <text x="1088" y="280" font-size="11" fill="#6b7280" text-anchor="middle" font-weight="700" >7</text>
  <text x="1088" y="296" font-size="10.5" fill="#1e40af" text-anchor="middle" font-weight="600" font-family="'SF Mono', Menlo, Consolas, monospace">cdk destroy</text>
  <line x1="1030" y1="326" x2="1146" y2="326" stroke="#fdba74" stroke-width="1"/>
  <text x="1088" y="342.0" font-size="10" fill="#374151" text-anchor="middle" font-weight="400" >Borra el stack y sus</text>
  <text x="1088" y="354.5" font-size="10" fill="#374151" text-anchor="middle" font-weight="400" >recursos (los que no</text>
  <text x="1088" y="367.0" font-size="10" fill="#374151" text-anchor="middle" font-weight="400" >tengan RemovalPolicy</text>
  <text x="1088" y="379.5" font-size="10" fill="#374151" text-anchor="middle" font-weight="400" >RETAIN); en el lab, en</text>
  <text x="1088" y="392.0" font-size="10" fill="#374151" text-anchor="middle" font-weight="400" >orden inverso a las</text>
  <text x="1088" y="404.5" font-size="10" fill="#374151" text-anchor="middle" font-weight="400" >dependencias</text>
  <rect x="1062" y="428" width="52" height="16" rx="8" ry="8" fill="#e5e7eb" stroke="#e5e7eb" stroke-width="1" />
  <text x="1088" y="439.5" font-size="9.5" fill="#374151" text-anchor="middle" font-weight="600" >limpieza</text>
  <rect x="356" y="480" width="676" height="56" rx="6" ry="6" fill="#ffffff" stroke="#9ca3af" stroke-width="1.2" stroke-dasharray="6,3"/>
  <text x="346" y="514" font-size="11.5" fill="#6b7280" text-anchor="end" font-weight="700" >Detrás de escena</text>
  <rect x="368" y="490" width="140" height="38" rx="6" ry="6" fill="#f9fafb" stroke="#d1d5db" stroke-width="1.5" />
  <text x="438.0" y="506" font-size="11" fill="#111827" text-anchor="middle" font-weight="600" >cdk.out/</text>
  <text x="438.0" y="520" font-size="10" fill="#6b7280" text-anchor="middle" font-weight="400" >(plantillas + assets)</text>
  <rect x="608" y="490" width="170" height="38" rx="6" ry="6" fill="#f9fafb" stroke="#d1d5db" stroke-width="1.5" />
  <text x="693.0" y="506" font-size="11" fill="#111827" text-anchor="middle" font-weight="600" >S3 bucket del bootstrap</text>
  <text x="693.0" y="520" font-size="10" fill="#6b7280" text-anchor="middle" font-weight="400" >(assets)</text>
  <rect x="800" y="490" width="220" height="38" rx="6" ry="6" fill="#f9fafb" stroke="#d1d5db" stroke-width="1.5" />
  <text x="910.0" y="506" font-size="11" fill="#111827" text-anchor="middle" font-weight="600" >CloudFormation</text>
  <text x="910.0" y="520" font-size="10" fill="#6b7280" text-anchor="middle" font-weight="400" >stack: CREATE / UPDATE / ROLLBACK</text>
  <rect x="24" y="564" width="564" height="112" rx="6" ry="6" fill="#eff6ff" stroke="#93c5fd" stroke-width="1.5" />
  <text x="36" y="584" font-size="11.5" fill="#1e3a8a" text-anchor="start" font-weight="700" >En este lab</text>
  <text x="36" y="604" font-size="10.5" fill="#1e40af" text-anchor="start" font-weight="600" font-family="'SF Mono', Menlo, Consolas, monospace">source venv/bin/activate &amp;&amp; source .env → cd ecsdemo-frontend/cdk</text>
  <text x="36" y="620" font-size="10.5" fill="#1e40af" text-anchor="start" font-weight="600" font-family="'SF Mono', Menlo, Consolas, monospace">cdk diff --profile isg-dev</text>
  <text x="36" y="636" font-size="10.5" fill="#1e40af" text-anchor="start" font-weight="600" font-family="'SF Mono', Menlo, Consolas, monospace">cdk deploy --profile isg-dev --tags Team=team-1 \</text>
  <text x="36" y="652" font-size="10.5" fill="#1e40af" text-anchor="start" font-weight="600" font-family="'SF Mono', Menlo, Consolas, monospace">    --tags Owner=alejandrogarcia@iteso.mx --require-approval never</text>
  <rect x="612" y="564" width="564" height="112" rx="6" ry="6" fill="#fff7ed" stroke="#fdba74" stroke-width="1.5" />
  <text x="624" y="584" font-size="11.5" fill="#9a3412" text-anchor="start" font-weight="700" >⚠ Errores típicos</text>
  <text x="624" y="604" font-size="11" fill="#9a3412" text-anchor="start" font-weight="400" >• Olvidar bootstrap (‘SSM parameter /cdk-bootstrap/… not found’)</text>
  <text x="624" y="620" font-size="11" fill="#9a3412" text-anchor="start" font-weight="400" >• Cambiar cosas por consola/CLI y que el siguiente deploy las revierta (drift)</text>
  <text x="624" y="636" font-size="11" fill="#9a3412" text-anchor="start" font-weight="400" >• Faltan tags/permisos y el stack hace ROLLBACK</text>
  <text x="624" y="652" font-size="11" fill="#9a3412" text-anchor="start" font-weight="400" >• Versiones: aws-cdk-lib (Python) y CLI cdk (npm) deben ser compatibles</text>
  <rect x="24" y="692" width="1152" height="100" rx="10" ry="10" fill="#f9fafb" stroke="#9ca3af" stroke-width="1.2" />
  <text x="44" y="714" font-size="14" fill="#111827" text-anchor="start" font-weight="700" >Comandos útiles</text>
  <rect x="40" y="726" width="272" height="54" rx="6" ry="6" fill="#ffffff" stroke="#d1d5db" stroke-width="1.5" />
  <text x="50" y="746" font-size="10.5" fill="#1e40af" text-anchor="start" font-weight="600" font-family="'SF Mono', Menlo, Consolas, monospace">cdk ls</text>
  <text x="50" y="764" font-size="10.5" fill="#6b7280" text-anchor="start" font-weight="400" >lista stacks</text>
  <rect x="324" y="726" width="272" height="54" rx="6" ry="6" fill="#ffffff" stroke="#d1d5db" stroke-width="1.5" />
  <text x="334" y="746" font-size="10.5" fill="#1e40af" text-anchor="start" font-weight="600" font-family="'SF Mono', Menlo, Consolas, monospace">cdk doctor</text>
  <text x="334" y="764" font-size="10.5" fill="#6b7280" text-anchor="start" font-weight="400" >revisa entorno</text>
  <rect x="608" y="726" width="272" height="54" rx="6" ry="6" fill="#ffffff" stroke="#d1d5db" stroke-width="1.5" />
  <text x="618" y="746" font-size="10.5" fill="#1e40af" text-anchor="start" font-weight="600" font-family="'SF Mono', Menlo, Consolas, monospace">cdk deploy --all / --require-approval never</text>
  <text x="618" y="764" font-size="10.5" fill="#6b7280" text-anchor="start" font-weight="400" >despliega todo sin preguntar</text>
  <rect x="892" y="726" width="272" height="54" rx="6" ry="6" fill="#ffffff" stroke="#d1d5db" stroke-width="1.5" />
  <text x="902" y="746" font-size="10.5" fill="#1e40af" text-anchor="start" font-weight="600" font-family="'SF Mono', Menlo, Consolas, monospace">cdk destroy --force</text>
  <text x="902" y="764" font-size="10.5" fill="#6b7280" text-anchor="start" font-weight="400" >borra sin confirmación</text>
  <line x1="24" y1="826" x2="52" y2="826" stroke="#2563eb" stroke-width="1.5" marker-end="url(#ab)"/>
  <text x="58" y="830" font-size="11" fill="#6b7280" text-anchor="start" font-weight="400" >Flujo del ciclo</text>
  <line x1="200" y1="826" x2="228" y2="826" stroke="#7c3aed" stroke-width="1.5" stroke-dasharray="5,3" marker-end="url(#ap)"/>
  <text x="234" y="830" font-size="11" fill="#6b7280" text-anchor="start" font-weight="400" >Iteración (editar → synth → diff → deploy)</text>
  <line x1="500" y1="826" x2="528" y2="826" stroke="#9ca3af" stroke-width="1.5" stroke-dasharray="4,2" marker-end="url(#agr)"/>
  <text x="534" y="830" font-size="11" fill="#6b7280" text-anchor="start" font-weight="400" >Artefactos / servicios detrás de escena</text>
</svg>